# xmcd CD database file
#
# Track frame offsets:
#	183
#	15903
#	29765
#	42368
#	60740
#	71553
#	84198
#	98580
#	112933
#	125158
#	138418
#	154003
#	167713
#	182005
#	195525
#	209335
#
# Disc length: 2978 seconds
#
# Revision: 4
# Processed by: cddbd v1.5.1PL2 Copyright (c) Steve Scherf et al.
# Submitted via: CDex 1.51
#
DISCID=d30ba010
DTITLE=Don Williams - Some Broken Hearts
DYEAR=1991
DGENRE=Country
TTITLE0=All I'm Missing Is You
TTITLE1=I'm Just A Country Boy
TTITLE2=Some Broken Hearts Never Mend
TTITLE3=I Believe In You
TTITLE4=Turn Out The Lights (& Love Me Tonight)
TTITLE5=You're My Best Friend
TTITLE6=Tulsa Time
TTITLE7=Listen To The Radio
TTITLE8=Years From Now
TTITLE9=Say It Again
TTITLE10=Till The Rivers All Run Dry
TTITLE11=Stay Young
TTITLE12=Amanda
TTITLE13=I Wouldn't Want To Live If You Didn't Love Me
TTITLE14=We Should Be Together
TTITLE15=Come Early Morning
EXTD=YEAR: 1991
EXTT0=
EXTT1=
EXTT2=
EXTT3=
EXTT4=
EXTT5=
EXTT6=
EXTT7=
EXTT8=
EXTT9=
EXTT10=
EXTT11=
EXTT12=
EXTT13=
EXTT14=
EXTT15=
PLAYORDER=
